<svg width="120" height="57" viewBox="0 0 120 57" fill="none" xmlns="http://www.w3.org/2000/svg">
<g filter="url(#filter0_d_201_36)">
<path d="M31.5305 32.0909V43H29.8845V32.0909H31.5305ZM33.9275 43V32.0909H40.767V33.5078H35.5735V36.8317H40.4101V38.2433H35.5735V41.5831H40.8309V43H33.9275ZM42.4276 33.5078V32.0909H50.8704V33.5078H47.4667V43H45.826V33.5078H42.4276ZM56.1678 33.5078V32.0909H64.6107V33.5078H61.2069V43H59.5663V33.5078H56.1678ZM66.4763 43V32.0909H70.3648C71.21 32.0909 71.9114 32.2365 72.4689 32.5277C73.03 32.8189 73.449 33.2219 73.726 33.7369C74.003 34.2482 74.1415 34.8395 74.1415 35.5107C74.1415 36.1783 74.0012 36.766 73.7207 37.2738C73.4437 37.7781 73.0246 38.1705 72.4636 38.451C71.906 38.7315 71.2047 38.8718 70.3595 38.8718H67.4138V37.4549H70.2104C70.743 37.4549 71.1763 37.3786 71.5101 37.2259C71.8474 37.0732 72.0942 36.8512 72.2505 36.56C72.4067 36.2688 72.4849 35.919 72.4849 35.5107C72.4849 35.0987 72.405 34.7418 72.2452 34.44C72.0889 34.1381 71.8421 33.9073 71.5047 33.7475C71.1709 33.5842 70.7324 33.5025 70.1891 33.5025H68.1223V43H66.4763ZM71.8616 38.0781L74.557 43H72.682L70.0399 38.0781H71.8616ZM77.0658 43H75.3187L79.2445 32.0909H81.1461L85.0719 43H83.3247L80.2405 34.0724H80.1553L77.0658 43ZM77.3588 38.728H83.0264V40.1129H77.3588V38.728ZM86.4581 32.0909L89.4944 40.9759H89.6169L92.6531 32.0909H94.4322L90.5064 43H88.6048L84.679 32.0909H86.4581ZM96.0076 43V32.0909H102.847V33.5078H97.6535V36.8317H102.49V38.2433H97.6535V41.5831H102.911V43H96.0076ZM105.046 43V32.0909H106.692V41.5831H111.635V43H105.046Z" fill="#00B4FF"/>
<path d="M31.5305 32.0909H32.0305V31.5909H31.5305V32.0909ZM31.5305 43V43.5H32.0305V43H31.5305ZM29.8845 43H29.3845V43.5H29.8845V43ZM29.8845 32.0909V31.5909H29.3845V32.0909H29.8845ZM31.0305 32.0909V43H32.0305V32.0909H31.0305ZM31.5305 42.5H29.8845V43.5H31.5305V42.5ZM30.3845 43V32.0909H29.3845V43H30.3845ZM29.8845 32.5909H31.5305V31.5909H29.8845V32.5909ZM33.9275 43H33.4275V43.5H33.9275V43ZM33.9275 32.0909V31.5909H33.4275V32.0909H33.9275ZM40.767 32.0909H41.267V31.5909H40.767V32.0909ZM40.767 33.5078V34.0078H41.267V33.5078H40.767ZM35.5735 33.5078V33.0078H35.0735V33.5078H35.5735ZM35.5735 36.8317H35.0735V37.3317H35.5735V36.8317ZM40.4101 36.8317H40.9101V36.3317H40.4101V36.8317ZM40.4101 38.2433V38.7433H40.9101V38.2433H40.4101ZM35.5735 38.2433V37.7433H35.0735V38.2433H35.5735ZM35.5735 41.5831H35.0735V42.0831H35.5735V41.5831ZM40.8309 41.5831H41.3309V41.0831H40.8309V41.5831ZM40.8309 43V43.5H41.3309V43H40.8309ZM34.4275 43V32.0909H33.4275V43H34.4275ZM33.9275 32.5909H40.767V31.5909H33.9275V32.5909ZM40.267 32.0909V33.5078H41.267V32.0909H40.267ZM40.767 33.0078H35.5735V34.0078H40.767V33.0078ZM35.0735 33.5078V36.8317H36.0735V33.5078H35.0735ZM35.5735 37.3317H40.4101V36.3317H35.5735V37.3317ZM39.9101 36.8317V38.2433H40.9101V36.8317H39.9101ZM40.4101 37.7433H35.5735V38.7433H40.4101V37.7433ZM35.0735 38.2433V41.5831H36.0735V38.2433H35.0735ZM35.5735 42.0831H40.8309V41.0831H35.5735V42.0831ZM40.3309 41.5831V43H41.3309V41.5831H40.3309ZM40.8309 42.5H33.9275V43.5H40.8309V42.5ZM42.4276 33.5078H41.9276V34.0078H42.4276V33.5078ZM42.4276 32.0909V31.5909H41.9276V32.0909H42.4276ZM50.8704 32.0909H51.3704V31.5909H50.8704V32.0909ZM50.8704 33.5078V34.0078H51.3704V33.5078H50.8704ZM47.4667 33.5078V33.0078H46.9667V33.5078H47.4667ZM47.4667 43V43.5H47.9667V43H47.4667ZM45.826 43H45.326V43.5H45.826V43ZM45.826 33.5078H46.326V33.0078H45.826V33.5078ZM42.9276 33.5078V32.0909H41.9276V33.5078H42.9276ZM42.4276 32.5909H50.8704V31.5909H42.4276V32.5909ZM50.3704 32.0909V33.5078H51.3704V32.0909H50.3704ZM50.8704 33.0078H47.4667V34.0078H50.8704V33.0078ZM46.9667 33.5078V43H47.9667V33.5078H46.9667ZM47.4667 42.5H45.826V43.5H47.4667V42.5ZM46.326 43V33.5078H45.326V43H46.326ZM45.826 33.0078H42.4276V34.0078H45.826V33.0078ZM56.1678 33.5078H55.6678V34.0078H56.1678V33.5078ZM56.1678 32.0909V31.5909H55.6678V32.0909H56.1678ZM64.6107 32.0909H65.1107V31.5909H64.6107V32.0909ZM64.6107 33.5078V34.0078H65.1107V33.5078H64.6107ZM61.2069 33.5078V33.0078H60.7069V33.5078H61.2069ZM61.2069 43V43.5H61.7069V43H61.2069ZM59.5663 43H59.0663V43.5H59.5663V43ZM59.5663 33.5078H60.0663V33.0078H59.5663V33.5078ZM56.6678 33.5078V32.0909H55.6678V33.5078H56.6678ZM56.1678 32.5909H64.6107V31.5909H56.1678V32.5909ZM64.1107 32.0909V33.5078H65.1107V32.0909H64.1107ZM64.6107 33.0078H61.2069V34.0078H64.6107V33.0078ZM60.7069 33.5078V43H61.7069V33.5078H60.7069ZM61.2069 42.5H59.5663V43.5H61.2069V42.5ZM60.0663 43V33.5078H59.0663V43H60.0663ZM59.5663 33.0078H56.1678V34.0078H59.5663V33.0078ZM66.4763 43H65.9763V43.5H66.4763V43ZM66.4763 32.0909V31.5909H65.9763V32.0909H66.4763ZM72.4689 32.5277L72.2374 32.9709L72.2386 32.9715L72.4689 32.5277ZM73.726 33.7369L73.2857 33.9737L73.2863 33.975L73.726 33.7369ZM73.7207 37.2738L73.283 37.032L73.2824 37.0331L73.7207 37.2738ZM72.4636 38.451L72.2399 38.0038L72.2388 38.0044L72.4636 38.451ZM67.4138 38.8718H66.9138V39.3718H67.4138V38.8718ZM67.4138 37.4549V36.9549H66.9138V37.4549H67.4138ZM71.5101 37.2259L71.3039 36.7703L71.3021 36.7712L71.5101 37.2259ZM72.2452 34.44L71.8011 34.6698L71.8033 34.6739L72.2452 34.44ZM71.5047 33.7475L71.285 34.1967L71.2907 34.1994L71.5047 33.7475ZM68.1223 33.5025V33.0025H67.6223V33.5025H68.1223ZM68.1223 43V43.5H68.6223V43H68.1223ZM71.8616 38.0781L72.3002 37.838L72.1579 37.5781H71.8616V38.0781ZM74.557 43V43.5H75.4008L74.9955 42.7598L74.557 43ZM72.682 43L72.2414 43.2365L72.3829 43.5H72.682V43ZM70.0399 38.0781V37.5781H69.204L69.5994 38.3146L70.0399 38.0781ZM66.9763 43V32.0909H65.9763V43H66.9763ZM66.4763 32.5909H70.3648V31.5909H66.4763V32.5909ZM70.3648 32.5909C71.1559 32.5909 71.7716 32.7276 72.2374 32.9709L72.7004 32.0845C72.0511 31.7454 71.2641 31.5909 70.3648 31.5909V32.5909ZM72.2386 32.9715C72.718 33.2203 73.0602 33.5546 73.2857 33.9737L74.1663 33.5C73.8378 32.8893 73.3419 32.4175 72.6992 32.0839L72.2386 32.9715ZM73.2863 33.975C73.518 34.4027 73.6415 34.9097 73.6415 35.5107H74.6415C74.6415 34.7692 74.488 34.0938 74.1656 33.4987L73.2863 33.975ZM73.6415 35.5107C73.6415 36.1066 73.5168 36.6087 73.283 37.032L74.1583 37.5156C74.4856 36.9232 74.6415 36.25 74.6415 35.5107H73.6415ZM73.2824 37.0331C73.0588 37.4402 72.7188 37.7644 72.2399 38.0038L72.6872 38.8982C73.3305 38.5765 73.8286 38.1159 74.1589 37.5145L73.2824 37.0331ZM72.2388 38.0044C71.7712 38.2396 71.1529 38.3718 70.3595 38.3718V39.3718C71.2564 39.3718 72.0408 39.2234 72.6883 38.8976L72.2388 38.0044ZM70.3595 38.3718H67.4138V39.3718H70.3595V38.3718ZM67.9138 38.8718V37.4549H66.9138V38.8718H67.9138ZM67.4138 37.9549H70.2104V36.9549H67.4138V37.9549ZM70.2104 37.9549C70.785 37.9549 71.2964 37.8734 71.7181 37.6805L71.3021 36.7712C71.0561 36.8837 70.7011 36.9549 70.2104 36.9549V37.9549ZM71.7163 37.6814C72.141 37.4891 72.4766 37.196 72.6911 36.7964L71.8099 36.3236C71.7118 36.5064 71.5539 36.6572 71.3039 36.7703L71.7163 37.6814ZM72.6911 36.7964C72.8945 36.4173 72.9849 35.9824 72.9849 35.5107H71.9849C71.9849 35.8557 71.919 36.1203 71.8099 36.3236L72.6911 36.7964ZM72.9849 35.5107C72.9849 35.0338 72.8921 34.5934 72.6871 34.206L71.8033 34.6739C71.9178 34.8903 71.9849 35.1636 71.9849 35.5107H72.9849ZM72.6892 34.2101C72.4777 33.8015 72.1448 33.4974 71.7188 33.2956L71.2907 34.1994C71.5395 34.3172 71.7002 34.4748 71.8011 34.6698L72.6892 34.2101ZM71.7245 33.2984C71.2981 33.0897 70.7761 33.0025 70.1891 33.0025V34.0025C70.6887 34.0025 71.0438 34.0786 71.285 34.1966L71.7245 33.2984ZM70.1891 33.0025H68.1223V34.0025H70.1891V33.0025ZM67.6223 33.5025V43H68.6223V33.5025H67.6223ZM68.1223 42.5H66.4763V43.5H68.1223V42.5ZM71.4231 38.3183L74.1184 43.2402L74.9955 42.7598L72.3002 37.838L71.4231 38.3183ZM74.557 42.5H72.682V43.5H74.557V42.5ZM73.1225 42.7635L70.4804 37.8416L69.5994 38.3146L72.2414 43.2365L73.1225 42.7635ZM70.0399 38.5781H71.8616V37.5781H70.0399V38.5781ZM77.0658 43V43.5H77.4219L77.5383 43.1635L77.0658 43ZM75.3187 43L74.8482 42.8307L74.6073 43.5H75.3187V43ZM79.2445 32.0909V31.5909H78.893L78.774 31.9216L79.2445 32.0909ZM81.1461 32.0909L81.6165 31.9216L81.4975 31.5909H81.1461V32.0909ZM85.0719 43V43.5H85.7832L85.5423 42.8307L85.0719 43ZM83.3247 43L82.8521 43.1633L82.9684 43.5H83.3247V43ZM80.2405 34.0724L80.7131 33.9092L80.5968 33.5724H80.2405V34.0724ZM80.1553 34.0724V33.5724H79.7993L79.6828 33.9089L80.1553 34.0724ZM77.3588 38.728V38.228H76.8588V38.728H77.3588ZM83.0264 38.728H83.5264V38.228H83.0264V38.728ZM83.0264 40.1129V40.6129H83.5264V40.1129H83.0264ZM77.3588 40.1129H76.8588V40.6129H77.3588V40.1129ZM77.0658 42.5H75.3187V43.5H77.0658V42.5ZM75.7891 43.1693L79.7149 32.2602L78.774 31.9216L74.8482 42.8307L75.7891 43.1693ZM79.2445 32.5909H81.1461V31.5909H79.2445V32.5909ZM80.6756 32.2602L84.6014 43.1693L85.5423 42.8307L81.6165 31.9216L80.6756 32.2602ZM85.0719 42.5H83.3247V43.5H85.0719V42.5ZM83.7973 42.8367L80.7131 33.9092L79.768 34.2357L82.8521 43.1633L83.7973 42.8367ZM80.2405 33.5724H80.1553V34.5724H80.2405V33.5724ZM79.6828 33.9089L76.5933 42.8365L77.5383 43.1635L80.6278 34.236L79.6828 33.9089ZM77.3588 39.228H83.0264V38.228H77.3588V39.228ZM82.5264 38.728V40.1129H83.5264V38.728H82.5264ZM83.0264 39.6129H77.3588V40.6129H83.0264V39.6129ZM77.8588 40.1129V38.728H76.8588V40.1129H77.8588ZM86.4581 32.0909L86.9313 31.9292L86.8157 31.5909H86.4581V32.0909ZM89.4944 40.9759L89.0212 41.1375L89.1368 41.4759H89.4944V40.9759ZM89.6169 40.9759V41.4759H89.9744L90.09 41.1375L89.6169 40.9759ZM92.6531 32.0909V31.5909H92.2956L92.18 31.9292L92.6531 32.0909ZM94.4322 32.0909L94.9027 32.2602L95.1435 31.5909H94.4322V32.0909ZM90.5064 43V43.5H90.8579L90.9769 43.1693L90.5064 43ZM88.6048 43L88.1343 43.1693L88.2533 43.5H88.6048V43ZM84.679 32.0909V31.5909H83.9677L84.2086 32.2602L84.679 32.0909ZM85.985 32.2526L89.0212 41.1375L89.9675 40.8142L86.9313 31.9292L85.985 32.2526ZM89.4944 41.4759H89.6169V40.4759H89.4944V41.4759ZM90.09 41.1375L93.1262 32.2526L92.18 31.9292L89.1437 40.8142L90.09 41.1375ZM92.6531 32.5909H94.4322V31.5909H92.6531V32.5909ZM93.9618 31.9216L90.036 42.8307L90.9769 43.1693L94.9027 32.2602L93.9618 31.9216ZM90.5064 42.5H88.6048V43.5H90.5064V42.5ZM89.0753 42.8307L85.1495 31.9216L84.2086 32.2602L88.1343 43.1693L89.0753 42.8307ZM84.679 32.5909H86.4581V31.5909H84.679V32.5909ZM96.0076 43H95.5076V43.5H96.0076V43ZM96.0076 32.0909V31.5909H95.5076V32.0909H96.0076ZM102.847 32.0909H103.347V31.5909H102.847V32.0909ZM102.847 33.5078V34.0078H103.347V33.5078H102.847ZM97.6535 33.5078V33.0078H97.1535V33.5078H97.6535ZM97.6535 36.8317H97.1535V37.3317H97.6535V36.8317ZM102.49 36.8317H102.99V36.3317H102.49V36.8317ZM102.49 38.2433V38.7433H102.99V38.2433H102.49ZM97.6535 38.2433V37.7433H97.1535V38.2433H97.6535ZM97.6535 41.5831H97.1535V42.0831H97.6535V41.5831ZM102.911 41.5831H103.411V41.0831H102.911V41.5831ZM102.911 43V43.5H103.411V43H102.911ZM96.5076 43V32.0909H95.5076V43H96.5076ZM96.0076 32.5909H102.847V31.5909H96.0076V32.5909ZM102.347 32.0909V33.5078H103.347V32.0909H102.347ZM102.847 33.0078H97.6535V34.0078H102.847V33.0078ZM97.1535 33.5078V36.8317H98.1535V33.5078H97.1535ZM97.6535 37.3317H102.49V36.3317H97.6535V37.3317ZM101.99 36.8317V38.2433H102.99V36.8317H101.99ZM102.49 37.7433H97.6535V38.7433H102.49V37.7433ZM97.1535 38.2433V41.5831H98.1535V38.2433H97.1535ZM97.6535 42.0831H102.911V41.0831H97.6535V42.0831ZM102.411 41.5831V43H103.411V41.5831H102.411ZM102.911 42.5H96.0076V43.5H102.911V42.5ZM105.046 43H104.546V43.5H105.046V43ZM105.046 32.0909V31.5909H104.546V32.0909H105.046ZM106.692 32.0909H107.192V31.5909H106.692V32.0909ZM106.692 41.5831H106.192V42.0831H106.692V41.5831ZM111.635 41.5831H112.135V41.0831H111.635V41.5831ZM111.635 43V43.5H112.135V43H111.635ZM105.546 43V32.0909H104.546V43H105.546ZM105.046 32.5909H106.692V31.5909H105.046V32.5909ZM106.192 32.0909V41.5831H107.192V32.0909H106.192ZM106.692 42.0831H111.635V41.0831H106.692V42.0831ZM111.135 41.5831V43H112.135V41.5831H111.135ZM111.635 42.5H105.046V43.5H111.635V42.5Z" fill="#00B4FF"/>
</g>
<g filter="url(#filter1_d_201_36)">
<path d="M30.2397 21.7273L20.3498 49H14.668L4.7603 21.7273H10.4599L17.3668 42.7145H17.6509L24.5401 21.7273H30.2397Z" fill="#00B4FF"/>
</g>
<defs>
<filter id="filter0_d_201_36" x="25.8846" y="32.0909" width="89.7503" height="18.9091" filterUnits="userSpaceOnUse" color-interpolation-filters="sRGB">
<feFlood flood-opacity="0" result="BackgroundImageFix"/>
<feColorMatrix in="SourceAlpha" type="matrix" values="0 0 0 0 0 0 0 0 0 0 0 0 0 0 0 0 0 0 127 0" result="hardAlpha"/>
<feOffset dy="4"/>
<feGaussianBlur stdDeviation="2"/>
<feComposite in2="hardAlpha" operator="out"/>
<feColorMatrix type="matrix" values="0 0 0 0 0 0 0 0 0 0 0 0 0 0 0 0 0 0 0.25 0"/>
<feBlend mode="normal" in2="BackgroundImageFix" result="effect1_dropShadow_201_36"/>
<feBlend mode="normal" in="SourceGraphic" in2="effect1_dropShadow_201_36" result="shape"/>
</filter>
<filter id="filter1_d_201_36" x="0.760284" y="21.7273" width="33.4794" height="35.2727" filterUnits="userSpaceOnUse" color-interpolation-filters="sRGB">
<feFlood flood-opacity="0" result="BackgroundImageFix"/>
<feColorMatrix in="SourceAlpha" type="matrix" values="0 0 0 0 0 0 0 0 0 0 0 0 0 0 0 0 0 0 127 0" result="hardAlpha"/>
<feOffset dy="4"/>
<feGaussianBlur stdDeviation="2"/>
<feComposite in2="hardAlpha" operator="out"/>
<feColorMatrix type="matrix" values="0 0 0 0 0 0 0 0 0 0 0 0 0 0 0 0 0 0 0.25 0"/>
<feBlend mode="normal" in2="BackgroundImageFix" result="effect1_dropShadow_201_36"/>
<feBlend mode="normal" in="SourceGraphic" in2="effect1_dropShadow_201_36" result="shape"/>
</filter>
</defs>
</svg>
